<?xml version="1.0" standalone="no"?>
<!DOCTYPE svg PUBLIC "-//W3C//DTD SVG 20010904//EN"
 "http://www.w3.org/TR/2001/REC-SVG-20010904/DTD/svg10.dtd">
<svg version="1.0" xmlns="http://www.w3.org/2000/svg"
 width="512.000000pt" height="512.000000pt" viewBox="0 0 512.000000 512.000000"
 preserveAspectRatio="xMidYMid meet">

<g transform="translate(0.000000,512.000000) scale(0.100000,-0.100000)"
fill="#000000" stroke="none">
<path d="M769 1701 c-21 -17 -24 -29 -27 -103 -3 -73 -1 -86 18 -110 27 -35
87 -39 114 -9 20 22 32 112 22 166 -13 69 -76 97 -127 56z"/>
<path d="M2031 1701 c-25 -25 -35 -78 -28 -148 7 -68 28 -93 77 -93 61 0 75
25 75 132 0 82 -2 91 -24 109 -30 24 -76 24 -100 0z"/>
<path d="M1263 1610 c-48 -19 -57 -82 -18 -129 93 -110 317 -110 410 0 65 78
-11 172 -94 117 -64 -42 -76 -48 -111 -48 -35 0 -46 5 -111 47 -37 25 -43 26
-76 13z"/>
</g>
</svg>
